<?xml version="1.0" encoding="us-ascii" standalone="no"?><svg xmlns="http://www.w3.org/2000/svg" xmlns:xlink="http://www.w3.org/1999/xlink" contentStyleType="text/css" height="1135px" preserveAspectRatio="none" style="width:1175px;height:1135px;background:#FFFFFF;" version="1.1" viewBox="0 0 1175 1135" width="1175px" zoomAndPan="magnify"><defs/><g><text fill="#000000" font-family="sans-serif" font-size="14" font-weight="bold" lengthAdjust="spacing" textLength="339" x="411" y="24.5332">Kamtjatka Fire Detection System - Domain Model</text><!--cluster Building--><g id="cluster_Building"><rect fill="none" height="188" rx="2.5" ry="2.5" style="stroke:#000000;stroke-width:1.5;" width="403" x="7" y="426.6094"/><text fill="#000000" font-family="sans-serif" font-size="14" font-weight="bold" lengthAdjust="spacing" textLength="58" x="179.5" y="443.1426">Building</text></g><!--cluster Users--><g id="cluster_Users"><rect fill="none" height="292" rx="2.5" ry="2.5" style="stroke:#000000;stroke-width:1.5;" width="438.5" x="217" y="837.6094"/><text fill="#000000" font-family="sans-serif" font-size="14" font-weight="bold" lengthAdjust="spacing" textLength="41" x="415.75" y="854.1426">Users</text></g><!--cluster Monitoring--><g id="cluster_Monitoring"><rect fill="none" height="768" rx="2.5" ry="2.5" style="stroke:#000000;stroke-width:1.5;" width="701" x="468" y="45.6094"/><text fill="#000000" font-family="sans-serif" font-size="14" font-weight="bold" lengthAdjust="spacing" textLength="77" x="780" y="62.1426">Monitoring</text></g><!--class Residence--><g id="elem_Residence"><rect codeLine="14" fill="#F1F1F1" height="100.8281" id="Residence" rx="2.5" ry="2.5" style="stroke:#181818;stroke-width:0.5;" width="112" x="23" y="480.1094"/><ellipse cx="43.85" cy="496.1094" fill="#C2C2C2" rx="11" ry="11" style="stroke:#181818;stroke-width:1.0;"/><path d="M46.6156,491.9844 Q46.7719,491.7656 46.9594,491.6563 Q47.1469,491.5469 47.3656,491.5469 Q47.7406,491.5469 47.975,491.8125 Q48.2094,492.0625 48.2094,492.6719 L48.2094,494.125 Q48.2094,494.7344 47.975,495 Q47.7406,495.2656 47.3656,495.2656 Q47.0219,495.2656 46.8188,495.0625 Q46.6156,494.875 46.5063,494.3594 Q46.4594,494 46.2719,493.8125 Q45.9438,493.4375 45.3344,493.2188 Q44.725,493 44.1,493 Q43.3344,493 42.6938,493.3281 Q42.0688,493.6563 41.5688,494.4063 Q41.0844,495.1563 41.0844,496.1875 L41.0844,497.2813 Q41.0844,498.5156 41.975,499.3438 Q42.8656,500.1563 44.4594,500.1563 Q45.3969,500.1563 46.0531,499.9063 Q46.4438,499.75 46.8656,499.3125 Q47.1313,499.0469 47.2719,498.9688 Q47.4281,498.8906 47.6313,498.8906 Q47.9594,498.8906 48.2094,499.1563 Q48.475,499.4063 48.475,499.75 Q48.475,500.0938 48.1313,500.5 Q47.6313,501.0781 46.8344,501.4063 Q45.7563,501.8594 44.4594,501.8594 Q42.9438,501.8594 41.7406,501.2344 Q40.7563,500.7344 40.0688,499.6719 Q39.3813,498.5938 39.3813,497.3125 L39.3813,496.1563 Q39.3813,494.8281 39.9906,493.6875 Q40.6156,492.5313 41.7094,491.9219 Q42.8031,491.2969 44.0375,491.2969 Q44.7719,491.2969 45.4125,491.4688 Q46.0688,491.625 46.6156,491.9844 Z " fill="#000000"/><text fill="#000000" font-family="sans-serif" font-size="14" lengthAdjust="spacing" textLength="67" x="59.15" y="501.8379">Residence</text><line style="stroke:#181818;stroke-width:0.5;" x1="24" x2="134" y1="512.1094" y2="512.1094"/><text fill="#000000" font-family="sans-serif" font-size="14" lengthAdjust="spacing" textLength="100" x="29" y="530.6426">residenceId : int</text><text fill="#000000" font-family="sans-serif" font-size="14" lengthAdjust="spacing" textLength="84" x="29" y="548.252">name : String</text><text fill="#000000" font-family="sans-serif" font-size="14" lengthAdjust="spacing" textLength="100" x="29" y="565.8613">address : String</text><line style="stroke:#181818;stroke-width:0.5;" x1="24" x2="134" y1="572.9375" y2="572.9375"/></g><!--class Room--><g id="elem_Room"><rect codeLine="20" fill="#F1F1F1" height="136.0469" id="Room" rx="2.5" ry="2.5" style="stroke:#181818;stroke-width:0.5;" width="169" x="225" y="462.6094"/><ellipse cx="286.75" cy="478.6094" fill="#C2C2C2" rx="11" ry="11" style="stroke:#181818;stroke-width:1.0;"/><path d="M289.5156,474.4844 Q289.6719,474.2656 289.8594,474.1563 Q290.0469,474.0469 290.2656,474.0469 Q290.6406,474.0469 290.875,474.3125 Q291.1094,474.5625 291.1094,475.1719 L291.1094,476.625 Q291.1094,477.2344 290.875,477.5 Q290.6406,477.7656 290.2656,477.7656 Q289.9219,477.7656 289.7188,477.5625 Q289.5156,477.375 289.4063,476.8594 Q289.3594,476.5 289.1719,476.3125 Q288.8438,475.9375 288.2344,475.7188 Q287.625,475.5 287,475.5 Q286.2344,475.5 285.5938,475.8281 Q284.9688,476.1563 284.4688,476.9063 Q283.9844,477.6563 283.9844,478.6875 L283.9844,479.7813 Q283.9844,481.0156 284.875,481.8438 Q285.7656,482.6563 287.3594,482.6563 Q288.2969,482.6563 288.9531,482.4063 Q289.3438,482.25 289.7656,481.8125 Q290.0313,481.5469 290.1719,481.4688 Q290.3281,481.3906 290.5313,481.3906 Q290.8594,481.3906 291.1094,481.6563 Q291.375,481.9063 291.375,482.25 Q291.375,482.5938 291.0313,483 Q290.5313,483.5781 289.7344,483.9063 Q288.6563,484.3594 287.3594,484.3594 Q285.8438,484.3594 284.6406,483.7344 Q283.6563,483.2344 282.9688,482.1719 Q282.2813,481.0938 282.2813,479.8125 L282.2813,478.6563 Q282.2813,477.3281 282.8906,476.1875 Q283.5156,475.0313 284.6094,474.4219 Q285.7031,473.7969 286.9375,473.7969 Q287.6719,473.7969 288.3125,473.9688 Q288.9688,474.125 289.5156,474.4844 Z " fill="#000000"/><text fill="#000000" font-family="sans-serif" font-size="14" lengthAdjust="spacing" textLength="37" x="307.25" y="484.3379">Room</text><line style="stroke:#181818;stroke-width:0.5;" x1="226" x2="393" y1="494.6094" y2="494.6094"/><text fill="#000000" font-family="sans-serif" font-size="14" lengthAdjust="spacing" textLength="70" x="231" y="513.1426">roomId : int</text><text fill="#000000" font-family="sans-serif" font-size="14" lengthAdjust="spacing" textLength="130" x="231" y="530.752">roomNumber : String</text><text fill="#000000" font-family="sans-serif" font-size="14" lengthAdjust="spacing" textLength="55" x="231" y="548.3613">floor : int</text><text fill="#000000" font-family="sans-serif" font-size="14" lengthAdjust="spacing" textLength="113" x="231" y="565.9707">roomType : String</text><text fill="#000000" font-family="sans-serif" font-size="14" lengthAdjust="spacing" textLength="157" x="231" y="583.5801">occupancyStatus : String</text><line style="stroke:#181818;stroke-width:0.5;" x1="226" x2="393" y1="590.6563" y2="590.6563"/></g><!--class User--><g id="elem_User"><rect codeLine="30" fill="#F1F1F1" height="136.0469" id="User" rx="2.5" ry="2.5" style="stroke:#181818;stroke-width:0.5;" width="153" x="233" y="977.6094"/><ellipse cx="290.25" cy="993.6094" fill="#CDCDCD" rx="11" ry="11" style="stroke:#181818;stroke-width:1.0;"/><path d="M292.4375,995.375 L288.2969,995.375 L287.875,996.4063 L288.2969,996.4063 Q288.9063,996.4063 289.1719,996.6406 Q289.4375,996.875 289.4375,997.2656 Q289.4375,997.6406 289.1719,997.875 Q288.9063,998.1094 288.2969,998.1094 L286,998.1094 Q285.3906,998.1094 285.1406,997.875 Q284.875,997.6406 284.875,997.25 Q284.875,996.875 285.1563,996.6406 Q285.4219,996.3906 286.0469,996.4063 L288.7188,989.75 L287.6094,989.75 Q287,989.75 286.7344,989.5156 Q286.4688,989.2813 286.4688,988.8906 Q286.4688,988.5156 286.7344,988.2813 Q287,988.0469 287.6094,988.0469 L291.2813,988.0469 L294.6719,996.4063 Q295.2656,996.4063 295.4531,996.5469 Q295.8438,996.8125 295.8438,997.2656 Q295.8438,997.6406 295.5781,997.875 Q295.3281,998.1094 294.7188,998.1094 L292.4219,998.1094 Q291.8125,998.1094 291.5469,997.875 Q291.2813,997.6406 291.2813,997.25 Q291.2813,996.875 291.5469,996.6406 Q291.8125,996.4063 292.4219,996.4063 L292.8438,996.4063 L292.4375,995.375 Z M291.7188,993.6719 L290.3594,990.2969 L288.9844,993.6719 L291.7188,993.6719 Z " fill="#000000"/><text fill="#000000" font-family="sans-serif" font-size="14" font-style="italic" lengthAdjust="spacing" textLength="30" x="310.75" y="999.3379">User</text><line style="stroke:#181818;stroke-width:0.5;" x1="234" x2="385" y1="1009.6094" y2="1009.6094"/><text fill="#000000" font-family="sans-serif" font-size="14" lengthAdjust="spacing" textLength="66" x="239" y="1028.1426">userId : int</text><text fill="#000000" font-family="sans-serif" font-size="14" lengthAdjust="spacing" textLength="103" x="239" y="1045.752">fullName : String</text><text fill="#000000" font-family="sans-serif" font-size="14" lengthAdjust="spacing" textLength="82" x="239" y="1063.3613">email : String</text><text fill="#000000" font-family="sans-serif" font-size="14" lengthAdjust="spacing" textLength="141" x="239" y="1080.9707">passwordHash : String</text><text fill="#000000" font-family="sans-serif" font-size="14" lengthAdjust="spacing" textLength="138" x="239" y="1098.5801">phoneNumber : String</text><line style="stroke:#181818;stroke-width:0.5;" x1="234" x2="385" y1="1105.6563" y2="1105.6563"/></g><!--class Resident--><g id="elem_Resident"><rect codeLine="38" fill="#F1F1F1" height="65.6094" id="Resident" rx="2.5" ry="2.5" style="stroke:#181818;stroke-width:0.5;" width="119" x="505.5" y="1047.6094"/><ellipse cx="534.45" cy="1063.6094" fill="#C2C2C2" rx="11" ry="11" style="stroke:#181818;stroke-width:1.0;"/><path d="M537.2156,1059.4844 Q537.3719,1059.2656 537.5594,1059.1563 Q537.7469,1059.0469 537.9656,1059.0469 Q538.3406,1059.0469 538.575,1059.3125 Q538.8094,1059.5625 538.8094,1060.1719 L538.8094,1061.625 Q538.8094,1062.2344 538.575,1062.5 Q538.3406,1062.7656 537.9656,1062.7656 Q537.6219,1062.7656 537.4188,1062.5625 Q537.2156,1062.375 537.1063,1061.8594 Q537.0594,1061.5 536.8719,1061.3125 Q536.5438,1060.9375 535.9344,1060.7188 Q535.325,1060.5 534.7,1060.5 Q533.9344,1060.5 533.2938,1060.8281 Q532.6688,1061.1563 532.1688,1061.9063 Q531.6844,1062.6563 531.6844,1063.6875 L531.6844,1064.7813 Q531.6844,1066.0156 532.575,1066.8438 Q533.4656,1067.6563 535.0594,1067.6563 Q535.9969,1067.6563 536.6531,1067.4063 Q537.0438,1067.25 537.4656,1066.8125 Q537.7313,1066.5469 537.8719,1066.4688 Q538.0281,1066.3906 538.2313,1066.3906 Q538.5594,1066.3906 538.8094,1066.6563 Q539.075,1066.9063 539.075,1067.25 Q539.075,1067.5938 538.7313,1068 Q538.2313,1068.5781 537.4344,1068.9063 Q536.3563,1069.3594 535.0594,1069.3594 Q533.5438,1069.3594 532.3406,1068.7344 Q531.3563,1068.2344 530.6688,1067.1719 Q529.9813,1066.0938 529.9813,1064.8125 L529.9813,1063.6563 Q529.9813,1062.3281 530.5906,1061.1875 Q531.2156,1060.0313 532.3094,1059.4219 Q533.4031,1058.7969 534.6375,1058.7969 Q535.3719,1058.7969 536.0125,1058.9688 Q536.6688,1059.125 537.2156,1059.4844 Z " fill="#000000"/><text fill="#000000" font-family="sans-serif" font-size="14" lengthAdjust="spacing" textLength="56" x="551.55" y="1069.3379">Resident</text><line style="stroke:#181818;stroke-width:0.5;" x1="506.5" x2="623.5" y1="1079.6094" y2="1079.6094"/><text fill="#000000" font-family="sans-serif" font-size="14" lengthAdjust="spacing" textLength="107" x="511.5" y="1098.1426">studentId : String</text><line style="stroke:#181818;stroke-width:0.5;" x1="506.5" x2="623.5" y1="1105.2188" y2="1105.2188"/></g><!--class Manager--><g id="elem_Manager"><rect codeLine="42" fill="#F1F1F1" height="83.2188" id="Manager" rx="2.5" ry="2.5" style="stroke:#181818;stroke-width:0.5;" width="149" x="490.5" y="874.1094"/><ellipse cx="532.95" cy="890.1094" fill="#C2C2C2" rx="11" ry="11" style="stroke:#181818;stroke-width:1.0;"/><path d="M535.7156,885.9844 Q535.8719,885.7656 536.0594,885.6563 Q536.2469,885.5469 536.4656,885.5469 Q536.8406,885.5469 537.075,885.8125 Q537.3094,886.0625 537.3094,886.6719 L537.3094,888.125 Q537.3094,888.7344 537.075,889 Q536.8406,889.2656 536.4656,889.2656 Q536.1219,889.2656 535.9188,889.0625 Q535.7156,888.875 535.6063,888.3594 Q535.5594,888 535.3719,887.8125 Q535.0438,887.4375 534.4344,887.2188 Q533.825,887 533.2,887 Q532.4344,887 531.7938,887.3281 Q531.1688,887.6563 530.6688,888.4063 Q530.1844,889.1563 530.1844,890.1875 L530.1844,891.2813 Q530.1844,892.5156 531.075,893.3438 Q531.9656,894.1563 533.5594,894.1563 Q534.4969,894.1563 535.1531,893.9063 Q535.5438,893.75 535.9656,893.3125 Q536.2313,893.0469 536.3719,892.9688 Q536.5281,892.8906 536.7313,892.8906 Q537.0594,892.8906 537.3094,893.1563 Q537.575,893.4063 537.575,893.75 Q537.575,894.0938 537.2313,894.5 Q536.7313,895.0781 535.9344,895.4063 Q534.8563,895.8594 533.5594,895.8594 Q532.0438,895.8594 530.8406,895.2344 Q529.8563,894.7344 529.1688,893.6719 Q528.4813,892.5938 528.4813,891.3125 L528.4813,890.1563 Q528.4813,888.8281 529.0906,887.6875 Q529.7156,886.5313 530.8094,885.9219 Q531.9031,885.2969 533.1375,885.2969 Q533.8719,885.2969 534.5125,885.4688 Q535.1688,885.625 535.7156,885.9844 Z " fill="#000000"/><text fill="#000000" font-family="sans-serif" font-size="14" lengthAdjust="spacing" textLength="56" x="553.05" y="895.8379">Manager</text><line style="stroke:#181818;stroke-width:0.5;" x1="491.5" x2="638.5" y1="906.1094" y2="906.1094"/><text fill="#000000" font-family="sans-serif" font-size="14" lengthAdjust="spacing" textLength="121" x="496.5" y="924.6426">employeeId : String</text><text fill="#000000" font-family="sans-serif" font-size="14" lengthAdjust="spacing" textLength="137" x="496.5" y="942.252">officeLocation : String</text><line style="stroke:#181818;stroke-width:0.5;" x1="491.5" x2="638.5" y1="949.3281" y2="949.3281"/></g><!--class SensorDevice--><g id="elem_SensorDevice"><rect codeLine="49" fill="#F1F1F1" height="153.6563" id="SensorDevice" rx="2.5" ry="2.5" style="stroke:#181818;stroke-width:0.5;" width="162" x="484" y="81.6094"/><ellipse cx="517.9" cy="97.6094" fill="#C2C2C2" rx="11" ry="11" style="stroke:#181818;stroke-width:1.0;"/><path d="M520.6656,93.4844 Q520.8219,93.2656 521.0094,93.1563 Q521.1969,93.0469 521.4156,93.0469 Q521.7906,93.0469 522.025,93.3125 Q522.2594,93.5625 522.2594,94.1719 L522.2594,95.625 Q522.2594,96.2344 522.025,96.5 Q521.7906,96.7656 521.4156,96.7656 Q521.0719,96.7656 520.8688,96.5625 Q520.6656,96.375 520.5563,95.8594 Q520.5094,95.5 520.3219,95.3125 Q519.9938,94.9375 519.3844,94.7188 Q518.775,94.5 518.15,94.5 Q517.3844,94.5 516.7438,94.8281 Q516.1188,95.1563 515.6188,95.9063 Q515.1344,96.6563 515.1344,97.6875 L515.1344,98.7813 Q515.1344,100.0156 516.025,100.8438 Q516.9156,101.6563 518.5094,101.6563 Q519.4469,101.6563 520.1031,101.4063 Q520.4938,101.25 520.9156,100.8125 Q521.1813,100.5469 521.3219,100.4688 Q521.4781,100.3906 521.6813,100.3906 Q522.0094,100.3906 522.2594,100.6563 Q522.525,100.9063 522.525,101.25 Q522.525,101.5938 522.1813,102 Q521.6813,102.5781 520.8844,102.9063 Q519.8063,103.3594 518.5094,103.3594 Q516.9938,103.3594 515.7906,102.7344 Q514.8063,102.2344 514.1188,101.1719 Q513.4313,100.0938 513.4313,98.8125 L513.4313,97.6563 Q513.4313,96.3281 514.0406,95.1875 Q514.6656,94.0313 515.7594,93.4219 Q516.8531,92.7969 518.0875,92.7969 Q518.8219,92.7969 519.4625,92.9688 Q520.1188,93.125 520.6656,93.4844 Z " fill="#000000"/><text fill="#000000" font-family="sans-serif" font-size="14" lengthAdjust="spacing" textLength="88" x="536.1" y="103.3379">SensorDevice</text><line style="stroke:#181818;stroke-width:0.5;" x1="485" x2="645" y1="113.6094" y2="113.6094"/><text fill="#000000" font-family="sans-serif" font-size="14" lengthAdjust="spacing" textLength="81" x="490" y="132.1426">sensorId : int</text><text fill="#000000" font-family="sans-serif" font-size="14" lengthAdjust="spacing" textLength="132" x="490" y="149.752">serialNumber : String</text><text fill="#000000" font-family="sans-serif" font-size="14" lengthAdjust="spacing" textLength="124" x="490" y="167.3613">sensorType : String</text><text fill="#000000" font-family="sans-serif" font-size="14" lengthAdjust="spacing" textLength="138" x="490" y="184.9707">installedAt : DateTime</text><text fill="#000000" font-family="sans-serif" font-size="14" lengthAdjust="spacing" textLength="87" x="490" y="202.5801">status : String</text><text fill="#000000" font-family="sans-serif" font-size="14" lengthAdjust="spacing" textLength="150" x="490" y="220.1895">firmwareVersion : String</text><line style="stroke:#181818;stroke-width:0.5;" x1="485" x2="645" y1="227.2656" y2="227.2656"/></g><!--class SensorReading--><g id="elem_SensorReading"><rect codeLine="58" fill="#F1F1F1" height="153.6563" id="SensorReading" rx="2.5" ry="2.5" style="stroke:#181818;stroke-width:0.5;" width="149" x="736" y="81.6094"/><ellipse cx="759.55" cy="97.6094" fill="#C2C2C2" rx="11" ry="11" style="stroke:#181818;stroke-width:1.0;"/><path d="M762.3156,93.4844 Q762.4719,93.2656 762.6594,93.1563 Q762.8469,93.0469 763.0656,93.0469 Q763.4406,93.0469 763.675,93.3125 Q763.9094,93.5625 763.9094,94.1719 L763.9094,95.625 Q763.9094,96.2344 763.675,96.5 Q763.4406,96.7656 763.0656,96.7656 Q762.7219,96.7656 762.5188,96.5625 Q762.3156,96.375 762.2063,95.8594 Q762.1594,95.5 761.9719,95.3125 Q761.6438,94.9375 761.0344,94.7188 Q760.425,94.5 759.8,94.5 Q759.0344,94.5 758.3938,94.8281 Q757.7688,95.1563 757.2688,95.9063 Q756.7844,96.6563 756.7844,97.6875 L756.7844,98.7813 Q756.7844,100.0156 757.675,100.8438 Q758.5656,101.6563 760.1594,101.6563 Q761.0969,101.6563 761.7531,101.4063 Q762.1438,101.25 762.5656,100.8125 Q762.8313,100.5469 762.9719,100.4688 Q763.1281,100.3906 763.3313,100.3906 Q763.6594,100.3906 763.9094,100.6563 Q764.175,100.9063 764.175,101.25 Q764.175,101.5938 763.8313,102 Q763.3313,102.5781 762.5344,102.9063 Q761.4563,103.3594 760.1594,103.3594 Q758.6438,103.3594 757.4406,102.7344 Q756.4563,102.2344 755.7688,101.1719 Q755.0813,100.0938 755.0813,98.8125 L755.0813,97.6563 Q755.0813,96.3281 755.6906,95.1875 Q756.3156,94.0313 757.4094,93.4219 Q758.5031,92.7969 759.7375,92.7969 Q760.4719,92.7969 761.1125,92.9688 Q761.7688,93.125 762.3156,93.4844 Z " fill="#000000"/><text fill="#000000" font-family="sans-serif" font-size="14" lengthAdjust="spacing" textLength="98" x="775.45" y="103.3379">SensorReading</text><line style="stroke:#181818;stroke-width:0.5;" x1="737" x2="884" y1="113.6094" y2="113.6094"/><text fill="#000000" font-family="sans-serif" font-size="14" lengthAdjust="spacing" textLength="86" x="742" y="132.1426">readingId : int</text><text fill="#000000" font-family="sans-serif" font-size="14" lengthAdjust="spacing" textLength="137" x="742" y="149.752">timestamp : DateTime</text><text fill="#000000" font-family="sans-serif" font-size="14" lengthAdjust="spacing" textLength="132" x="742" y="167.3613">temperature : double</text><text fill="#000000" font-family="sans-serif" font-size="14" lengthAdjust="spacing" textLength="107" x="742" y="184.9707">humidity : double</text><text fill="#000000" font-family="sans-serif" font-size="14" lengthAdjust="spacing" textLength="112" x="742" y="202.5801">co2Level : double</text><text fill="#000000" font-family="sans-serif" font-size="14" lengthAdjust="spacing" textLength="130" x="742" y="220.1895">smokeLevel : double</text><line style="stroke:#181818;stroke-width:0.5;" x1="737" x2="884" y1="227.2656" y2="227.2656"/></g><!--class Prediction--><g id="elem_Prediction"><rect codeLine="67" fill="#F1F1F1" height="136.0469" id="Prediction" rx="2.5" ry="2.5" style="stroke:#181818;stroke-width:0.5;" width="178" x="975" y="90.6094"/><ellipse cx="1028.25" cy="106.6094" fill="#C2C2C2" rx="11" ry="11" style="stroke:#181818;stroke-width:1.0;"/><path d="M1031.0156,102.4844 Q1031.1719,102.2656 1031.3594,102.1563 Q1031.5469,102.0469 1031.7656,102.0469 Q1032.1406,102.0469 1032.375,102.3125 Q1032.6094,102.5625 1032.6094,103.1719 L1032.6094,104.625 Q1032.6094,105.2344 1032.375,105.5 Q1032.1406,105.7656 1031.7656,105.7656 Q1031.4219,105.7656 1031.2188,105.5625 Q1031.0156,105.375 1030.9063,104.8594 Q1030.8594,104.5 1030.6719,104.3125 Q1030.3438,103.9375 1029.7344,103.7188 Q1029.125,103.5 1028.5,103.5 Q1027.7344,103.5 1027.0938,103.8281 Q1026.4688,104.1563 1025.9688,104.9063 Q1025.4844,105.6563 1025.4844,106.6875 L1025.4844,107.7813 Q1025.4844,109.0156 1026.375,109.8438 Q1027.2656,110.6563 1028.8594,110.6563 Q1029.7969,110.6563 1030.4531,110.4063 Q1030.8438,110.25 1031.2656,109.8125 Q1031.5313,109.5469 1031.6719,109.4688 Q1031.8281,109.3906 1032.0313,109.3906 Q1032.3594,109.3906 1032.6094,109.6563 Q1032.875,109.9063 1032.875,110.25 Q1032.875,110.5938 1032.5313,111 Q1032.0313,111.5781 1031.2344,111.9063 Q1030.1563,112.3594 1028.8594,112.3594 Q1027.3438,112.3594 1026.1406,111.7344 Q1025.1563,111.2344 1024.4688,110.1719 Q1023.7813,109.0938 1023.7813,107.8125 L1023.7813,106.6563 Q1023.7813,105.3281 1024.3906,104.1875 Q1025.0156,103.0313 1026.1094,102.4219 Q1027.2031,101.7969 1028.4375,101.7969 Q1029.1719,101.7969 1029.8125,101.9688 Q1030.4688,102.125 1031.0156,102.4844 Z " fill="#000000"/><text fill="#000000" font-family="sans-serif" font-size="14" lengthAdjust="spacing" textLength="63" x="1048.75" y="112.3379">Prediction</text><line style="stroke:#181818;stroke-width:0.5;" x1="976" x2="1152" y1="122.6094" y2="122.6094"/><text fill="#000000" font-family="sans-serif" font-size="14" lengthAdjust="spacing" textLength="100" x="981" y="141.1426">predictionId : int</text><text fill="#000000" font-family="sans-serif" font-size="14" lengthAdjust="spacing" textLength="166" x="981" y="158.752">predictionTime : DateTime</text><text fill="#000000" font-family="sans-serif" font-size="14" lengthAdjust="spacing" textLength="166" x="981" y="176.3613">predictedCategory : String</text><text fill="#000000" font-family="sans-serif" font-size="14" lengthAdjust="spacing" textLength="161" x="981" y="193.9707">confidenceScore : double</text><text fill="#000000" font-family="sans-serif" font-size="14" lengthAdjust="spacing" textLength="105" x="981" y="211.5801">riskLevel : String</text><line style="stroke:#181818;stroke-width:0.5;" x1="976" x2="1152" y1="218.6563" y2="218.6563"/></g><!--class FireEvent--><g id="elem_FireEvent"><rect codeLine="75" fill="#F1F1F1" height="153.6563" id="FireEvent" rx="2.5" ry="2.5" style="stroke:#181818;stroke-width:0.5;" width="144" x="493" y="417.6094"/><ellipse cx="530.95" cy="433.6094" fill="#C2C2C2" rx="11" ry="11" style="stroke:#181818;stroke-width:1.0;"/><path d="M533.7156,429.4844 Q533.8719,429.2656 534.0594,429.1563 Q534.2469,429.0469 534.4656,429.0469 Q534.8406,429.0469 535.075,429.3125 Q535.3094,429.5625 535.3094,430.1719 L535.3094,431.625 Q535.3094,432.2344 535.075,432.5 Q534.8406,432.7656 534.4656,432.7656 Q534.1219,432.7656 533.9188,432.5625 Q533.7156,432.375 533.6063,431.8594 Q533.5594,431.5 533.3719,431.3125 Q533.0438,430.9375 532.4344,430.7188 Q531.825,430.5 531.2,430.5 Q530.4344,430.5 529.7938,430.8281 Q529.1688,431.1563 528.6688,431.9063 Q528.1844,432.6563 528.1844,433.6875 L528.1844,434.7813 Q528.1844,436.0156 529.075,436.8438 Q529.9656,437.6563 531.5594,437.6563 Q532.4969,437.6563 533.1531,437.4063 Q533.5438,437.25 533.9656,436.8125 Q534.2313,436.5469 534.3719,436.4688 Q534.5281,436.3906 534.7313,436.3906 Q535.0594,436.3906 535.3094,436.6563 Q535.575,436.9063 535.575,437.25 Q535.575,437.5938 535.2313,438 Q534.7313,438.5781 533.9344,438.9063 Q532.8563,439.3594 531.5594,439.3594 Q530.0438,439.3594 528.8406,438.7344 Q527.8563,438.2344 527.1688,437.1719 Q526.4813,436.0938 526.4813,434.8125 L526.4813,433.6563 Q526.4813,432.3281 527.0906,431.1875 Q527.7156,430.0313 528.8094,429.4219 Q529.9031,428.7969 531.1375,428.7969 Q531.8719,428.7969 532.5125,428.9688 Q533.1688,429.125 533.7156,429.4844 Z " fill="#000000"/><text fill="#000000" font-family="sans-serif" font-size="14" lengthAdjust="spacing" textLength="61" x="550.05" y="439.3379">FireEvent</text><line style="stroke:#181818;stroke-width:0.5;" x1="494" x2="636" y1="449.6094" y2="449.6094"/><text fill="#000000" font-family="sans-serif" font-size="14" lengthAdjust="spacing" textLength="73" x="499" y="468.1426">eventId : int</text><text fill="#000000" font-family="sans-serif" font-size="14" lengthAdjust="spacing" textLength="132" x="499" y="485.752">startTime : DateTime</text><text fill="#000000" font-family="sans-serif" font-size="14" lengthAdjust="spacing" textLength="128" x="499" y="503.3613">endTime : DateTime</text><text fill="#000000" font-family="sans-serif" font-size="14" lengthAdjust="spacing" textLength="124" x="499" y="520.9707">eventStatus : String</text><text fill="#000000" font-family="sans-serif" font-size="14" lengthAdjust="spacing" textLength="132" x="499" y="538.5801">severityLevel : String</text><text fill="#000000" font-family="sans-serif" font-size="14" lengthAdjust="spacing" textLength="120" x="499" y="556.1895">detectedAs : String</text><line style="stroke:#181818;stroke-width:0.5;" x1="494" x2="636" y1="563.2656" y2="563.2656"/></g><!--class Alert--><g id="elem_Alert"><rect codeLine="84" fill="#F1F1F1" height="153.6563" id="Alert" rx="2.5" ry="2.5" style="stroke:#181818;stroke-width:0.5;" width="146" x="737.5" y="417.6094"/><ellipse cx="791.75" cy="433.6094" fill="#C2C2C2" rx="11" ry="11" style="stroke:#181818;stroke-width:1.0;"/><path d="M794.5156,429.4844 Q794.6719,429.2656 794.8594,429.1563 Q795.0469,429.0469 795.2656,429.0469 Q795.6406,429.0469 795.875,429.3125 Q796.1094,429.5625 796.1094,430.1719 L796.1094,431.625 Q796.1094,432.2344 795.875,432.5 Q795.6406,432.7656 795.2656,432.7656 Q794.9219,432.7656 794.7188,432.5625 Q794.5156,432.375 794.4063,431.8594 Q794.3594,431.5 794.1719,431.3125 Q793.8438,430.9375 793.2344,430.7188 Q792.625,430.5 792,430.5 Q791.2344,430.5 790.5938,430.8281 Q789.9688,431.1563 789.4688,431.9063 Q788.9844,432.6563 788.9844,433.6875 L788.9844,434.7813 Q788.9844,436.0156 789.875,436.8438 Q790.7656,437.6563 792.3594,437.6563 Q793.2969,437.6563 793.9531,437.4063 Q794.3438,437.25 794.7656,436.8125 Q795.0313,436.5469 795.1719,436.4688 Q795.3281,436.3906 795.5313,436.3906 Q795.8594,436.3906 796.1094,436.6563 Q796.375,436.9063 796.375,437.25 Q796.375,437.5938 796.0313,438 Q795.5313,438.5781 794.7344,438.9063 Q793.6563,439.3594 792.3594,439.3594 Q790.8438,439.3594 789.6406,438.7344 Q788.6563,438.2344 787.9688,437.1719 Q787.2813,436.0938 787.2813,434.8125 L787.2813,433.6563 Q787.2813,432.3281 787.8906,431.1875 Q788.5156,430.0313 789.6094,429.4219 Q790.7031,428.7969 791.9375,428.7969 Q792.6719,428.7969 793.3125,428.9688 Q793.9688,429.125 794.5156,429.4844 Z " fill="#000000"/><text fill="#000000" font-family="sans-serif" font-size="14" lengthAdjust="spacing" textLength="29" x="812.25" y="439.3379">Alert</text><line style="stroke:#181818;stroke-width:0.5;" x1="738.5" x2="882.5" y1="449.6094" y2="449.6094"/><text fill="#000000" font-family="sans-serif" font-size="14" lengthAdjust="spacing" textLength="66" x="743.5" y="468.1426">alertId : int</text><text fill="#000000" font-family="sans-serif" font-size="14" lengthAdjust="spacing" textLength="134" x="743.5" y="485.752">createdAt : DateTime</text><text fill="#000000" font-family="sans-serif" font-size="14" lengthAdjust="spacing" textLength="109" x="743.5" y="503.3613">alertType : String</text><text fill="#000000" font-family="sans-serif" font-size="14" lengthAdjust="spacing" textLength="106" x="743.5" y="520.9707">message : String</text><text fill="#000000" font-family="sans-serif" font-size="14" lengthAdjust="spacing" textLength="92" x="743.5" y="538.5801">priority : String</text><text fill="#000000" font-family="sans-serif" font-size="14" lengthAdjust="spacing" textLength="87" x="743.5" y="556.1895">status : String</text><line style="stroke:#181818;stroke-width:0.5;" x1="738.5" x2="882.5" y1="563.2656" y2="563.2656"/></g><!--class IncidentReport--><g id="elem_IncidentReport"><rect codeLine="93" fill="#F1F1F1" height="136.0469" id="IncidentReport" rx="2.5" ry="2.5" style="stroke:#181818;stroke-width:0.5;" width="146" x="737.5" y="661.6094"/><ellipse cx="762.4" cy="677.6094" fill="#C2C2C2" rx="11" ry="11" style="stroke:#181818;stroke-width:1.0;"/><path d="M765.1656,673.4844 Q765.3219,673.2656 765.5094,673.1563 Q765.6969,673.0469 765.9156,673.0469 Q766.2906,673.0469 766.525,673.3125 Q766.7594,673.5625 766.7594,674.1719 L766.7594,675.625 Q766.7594,676.2344 766.525,676.5 Q766.2906,676.7656 765.9156,676.7656 Q765.5719,676.7656 765.3688,676.5625 Q765.1656,676.375 765.0563,675.8594 Q765.0094,675.5 764.8219,675.3125 Q764.4938,674.9375 763.8844,674.7188 Q763.275,674.5 762.65,674.5 Q761.8844,674.5 761.2438,674.8281 Q760.6188,675.1563 760.1188,675.9063 Q759.6344,676.6563 759.6344,677.6875 L759.6344,678.7813 Q759.6344,680.0156 760.525,680.8438 Q761.4156,681.6563 763.0094,681.6563 Q763.9469,681.6563 764.6031,681.4063 Q764.9938,681.25 765.4156,680.8125 Q765.6813,680.5469 765.8219,680.4688 Q765.9781,680.3906 766.1813,680.3906 Q766.5094,680.3906 766.7594,680.6563 Q767.025,680.9063 767.025,681.25 Q767.025,681.5938 766.6813,682 Q766.1813,682.5781 765.3844,682.9063 Q764.3063,683.3594 763.0094,683.3594 Q761.4938,683.3594 760.2906,682.7344 Q759.3063,682.2344 758.6188,681.1719 Q757.9313,680.0938 757.9313,678.8125 L757.9313,677.6563 Q757.9313,676.3281 758.5406,675.1875 Q759.1656,674.0313 760.2594,673.4219 Q761.3531,672.7969 762.5875,672.7969 Q763.3219,672.7969 763.9625,672.9688 Q764.6188,673.125 765.1656,673.4844 Z " fill="#000000"/><text fill="#000000" font-family="sans-serif" font-size="14" lengthAdjust="spacing" textLength="92" x="778.6" y="683.3379">IncidentReport</text><line style="stroke:#181818;stroke-width:0.5;" x1="738.5" x2="882.5" y1="693.6094" y2="693.6094"/><text fill="#000000" font-family="sans-serif" font-size="14" lengthAdjust="spacing" textLength="76" x="743.5" y="712.1426">reportId : int</text><text fill="#000000" font-family="sans-serif" font-size="14" lengthAdjust="spacing" textLength="134" x="743.5" y="729.752">createdAt : DateTime</text><text fill="#000000" font-family="sans-serif" font-size="14" lengthAdjust="spacing" textLength="118" x="743.5" y="747.3613">description : String</text><text fill="#000000" font-family="sans-serif" font-size="14" lengthAdjust="spacing" textLength="103" x="743.5" y="764.9707">outcome : String</text><text fill="#000000" font-family="sans-serif" font-size="14" lengthAdjust="spacing" textLength="129" x="743.5" y="782.5801">costAmount : double</text><line style="stroke:#181818;stroke-width:0.5;" x1="738.5" x2="882.5" y1="789.6563" y2="789.6563"/></g><!--link Residence to Room--><!--link Residence to Room--><g id="link_Residence_Room"><path codeLine="113" d="M135.09,513.7794 C162.01,513.7794 188.84,513.7794 218.72,513.7794 " fill="none" id="Residence-to-Room" style="stroke:#181818;stroke-width:1.0;"/><polygon fill="#181818" points="224.72,513.7794,215.72,509.7794,219.72,513.7794,215.72,517.7794,224.72,513.7794" style="stroke:#181818;stroke-width:1.0;"/><text fill="#000000" font-family="sans-serif" font-size="13" lengthAdjust="spacing" textLength="49" x="129.9" y="510.2745">contains</text><text fill="#000000" font-family="sans-serif" font-size="13" lengthAdjust="spacing" textLength="7" x="143.0974" y="526.1231">1</text><text fill="#000000" font-family="sans-serif" font-size="13" lengthAdjust="spacing" textLength="20" x="196.871" y="526.5559">1..*</text></g><!--link User to Resident--><!--reverse link User to Resident--><g id="link_User_Resident"><path codeLine="110" d="M404.16,1097.1094 C442.38,1097.1094 469.9,1097.1094 505.45,1097.1094 " fill="none" id="User-backto-Resident" style="stroke:#181818;stroke-width:1.0;"/><polygon fill="none" points="386.16,1097.1094,404.16,1103.1094,404.16,1091.1094,386.16,1097.1094" style="stroke:#181818;stroke-width:1.0;"/></g><!--link Resident to Manager--><!--link SensorDevice to SensorReading--><!--link SensorDevice to SensorReading--><g id="link_SensorDevice_SensorReading"><path codeLine="120" d="M646.07,132.9394 C674.98,132.9394 701.39,132.9394 729.74,132.9394 " fill="none" id="SensorDevice-to-SensorReading" style="stroke:#181818;stroke-width:1.0;"/><polygon fill="#181818" points="735.74,132.9394,726.74,128.9394,730.74,132.9394,726.74,136.9394,735.74,132.9394" style="stroke:#181818;stroke-width:1.0;"/><text fill="#000000" font-family="sans-serif" font-size="13" lengthAdjust="spacing" textLength="53" x="636.91" y="129.4345">produces</text><text fill="#000000" font-family="sans-serif" font-size="13" lengthAdjust="spacing" textLength="7" x="654.1306" y="144.7835">1</text><text fill="#000000" font-family="sans-serif" font-size="13" lengthAdjust="spacing" textLength="20" x="707.9262" y="144.8376">0..*</text></g><!--link SensorReading to Prediction--><!--link SensorReading to Prediction--><g id="link_SensorReading_Prediction"><path codeLine="121" d="M885.19,135.9394 C913.23,135.9394 939.38,135.9394 968.63,135.9394 " fill="none" id="SensorReading-to-Prediction" style="stroke:#181818;stroke-width:1.0;"/><polygon fill="#181818" points="974.63,135.9394,965.63,131.9394,969.63,135.9394,965.63,139.9394,974.63,135.9394" style="stroke:#181818;stroke-width:1.0;"/><text fill="#000000" font-family="sans-serif" font-size="13" lengthAdjust="spacing" textLength="70" x="858.91" y="132.4345">analyzed as</text><text fill="#000000" font-family="sans-serif" font-size="13" lengthAdjust="spacing" textLength="7" x="892.8868" y="148.0246">1</text><text fill="#000000" font-family="sans-serif" font-size="13" lengthAdjust="spacing" textLength="22" x="944.9454" y="148.323">0..1</text></g><!--link FireEvent to Alert--><!--link FireEvent to Alert--><g id="link_FireEvent_Alert"><path codeLine="125" d="M637.33,456.1094 C668.87,456.1094 699.79,456.1094 731.41,456.1094 " fill="none" id="FireEvent-to-Alert" style="stroke:#181818;stroke-width:1.0;"/><polygon fill="#181818" points="737.41,456.1094,728.41,452.1094,732.41,456.1094,728.41,460.1094,737.41,456.1094" style="stroke:#181818;stroke-width:1.0;"/><text fill="#000000" font-family="sans-serif" font-size="13" lengthAdjust="spacing" textLength="43" x="643.37" y="452.6045">triggers</text><text fill="#000000" font-family="sans-serif" font-size="13" lengthAdjust="spacing" textLength="7" x="645.15" y="466.495">1</text><text fill="#000000" font-family="sans-serif" font-size="13" lengthAdjust="spacing" textLength="20" x="709.4905" y="466.7306">0..*</text></g><!--link Alert to IncidentReport--><!--reverse link User to Manager--><g id="link_User_Manager"><path codeLine="111" d="M404.17,1012.6094 C456.36,1012.6094 498,1012.6094 498,1012.6094 C498,1012.6094 498,983.5994 498,957.3094 " fill="none" id="User-backto-Manager" style="stroke:#181818;stroke-width:1.0;"/><polygon fill="none" points="386.17,1012.6094,404.17,1018.6094,404.17,1006.6094,386.17,1012.6094" style="stroke:#181818;stroke-width:1.0;"/></g><!--link Residence to Manager--><g id="link_Residence_Manager"><path codeLine="114" d="M79,581.3394 C79,685.8794 79,915.6094 79,915.6094 C79,915.6094 348.16,915.6094 484.39,915.6094 " fill="none" id="Residence-to-Manager" style="stroke:#181818;stroke-width:1.0;"/><polygon fill="#181818" points="490.39,915.6094,481.39,911.6094,485.39,915.6094,481.39,919.6094,490.39,915.6094" style="stroke:#181818;stroke-width:1.0;"/><text fill="#000000" font-family="sans-serif" font-size="13" lengthAdjust="spacing" textLength="71" x="45.56" y="930.1045">managed by</text><text fill="#000000" font-family="sans-serif" font-size="13" lengthAdjust="spacing" textLength="7" x="71.5516" y="602.3928">1</text><text fill="#000000" font-family="sans-serif" font-size="13" lengthAdjust="spacing" textLength="20" x="462.59" y="929.8481">1..*</text></g><!--link Room to Resident--><g id="link_Room_Resident"><path codeLine="116" d="M390,598.7194 C390,742.5494 390,1064.1094 390,1064.1094 C390,1064.1094 448.57,1064.1094 499.26,1064.1094 " fill="none" id="Room-to-Resident" style="stroke:#181818;stroke-width:1.0;"/><polygon fill="#181818" points="505.26,1064.1094,496.26,1060.1094,500.26,1064.1094,496.26,1068.1094,505.26,1064.1094" style="stroke:#181818;stroke-width:1.0;"/><text fill="#000000" font-family="sans-serif" font-size="13" lengthAdjust="spacing" textLength="70" x="319" y="903.5445">occupied by</text><text fill="#000000" font-family="sans-serif" font-size="13" lengthAdjust="spacing" textLength="7" x="390.9406" y="620.079">1</text><text fill="#000000" font-family="sans-serif" font-size="13" lengthAdjust="spacing" textLength="22" x="475.5228" y="1076.7154">0..1</text></g><!--link Room to SensorDevice--><g id="link_Room_SensorDevice"><path codeLine="117" d="M310,462.3794 C310,354.9894 310,158.6094 310,158.6094 C310,158.6094 403.3,158.6094 477.97,158.6094 " fill="none" id="Room-to-SensorDevice" style="stroke:#181818;stroke-width:1.0;"/><polygon fill="#181818" points="483.97,158.6094,474.97,154.6094,478.97,158.6094,474.97,162.6094,483.97,158.6094" style="stroke:#181818;stroke-width:1.0;"/><text fill="#000000" font-family="sans-serif" font-size="13" lengthAdjust="spacing" textLength="79" x="230" y="238.0045">equipped with</text><text fill="#000000" font-family="sans-serif" font-size="13" lengthAdjust="spacing" textLength="7" x="302.6719" y="451.5535">1</text><text fill="#000000" font-family="sans-serif" font-size="13" lengthAdjust="spacing" textLength="20" x="455.8626" y="172.848">1..*</text></g><!--link Room to FireEvent--><g id="link_Room_FireEvent"><path codeLine="118" d="M394.22,517.1094 C426.18,517.1094 456.21,517.1094 486.9,517.1094 " fill="none" id="Room-to-FireEvent" style="stroke:#181818;stroke-width:1.0;"/><polygon fill="#181818" points="492.9,517.1094,483.9,513.1094,487.9,517.1094,483.9,521.1094,492.9,517.1094" style="stroke:#181818;stroke-width:1.0;"/><text fill="#000000" font-family="sans-serif" font-size="13" lengthAdjust="spacing" textLength="21" x="421.56" y="531.6045">has</text><text fill="#000000" font-family="sans-serif" font-size="13" lengthAdjust="spacing" textLength="7" x="402.0771" y="530.1282">1</text><text fill="#000000" font-family="sans-serif" font-size="13" lengthAdjust="spacing" textLength="20" x="465.0748" y="533.5447">0..*</text></g><!--link FireEvent to SensorReading--><g id="link_FireEvent_SensorReading"><path codeLine="123" d="M541,417.3594 C541,361.6694 541,296.2794 541,296.2794 C541,296.2794 811,296.2794 811,296.2794 C811,296.2794 811,273.2694 811,241.8894 " fill="none" id="FireEvent-to-SensorReading" style="stroke:#181818;stroke-width:1.0;"/><polygon fill="#181818" points="811,235.8894,807,244.8894,811,240.8894,815,244.8894,811,235.8894" style="stroke:#181818;stroke-width:1.0;"/><text fill="#000000" font-family="sans-serif" font-size="13" lengthAdjust="spacing" textLength="53" x="591.65" y="310.7745">based on</text><text fill="#000000" font-family="sans-serif" font-size="13" lengthAdjust="spacing" textLength="7" x="531.3789" y="406.7622">1</text><text fill="#000000" font-family="sans-serif" font-size="13" lengthAdjust="spacing" textLength="20" x="790.1836" y="256.7431">1..*</text></g><!--link FireEvent to Prediction--><g id="link_FireEvent_Prediction"><path codeLine="124" d="M589,417.3294 C589,385.9494 589,356.9394 589,356.9394 C589,356.9394 1064,356.9394 1064,356.9394 C1064,356.9394 1064,290.2394 1064,232.8694 " fill="none" id="FireEvent-to-Prediction" style="stroke:#181818;stroke-width:1.0;"/><polygon fill="#181818" points="1064,226.8694,1060,235.8694,1064,231.8694,1068,235.8694,1064,226.8694" style="stroke:#181818;stroke-width:1.0;"/><text fill="#000000" font-family="sans-serif" font-size="13" lengthAdjust="spacing" textLength="75" x="785.35" y="371.4345">supported by</text><text fill="#000000" font-family="sans-serif" font-size="13" lengthAdjust="spacing" textLength="7" x="583.9539" y="406.7294">1</text><text fill="#000000" font-family="sans-serif" font-size="13" lengthAdjust="spacing" textLength="22" x="1040.8656" y="248.2445">0..1</text></g><!--link FireEvent to IncidentReport--><g id="link_FireEvent_IncidentReport"><path codeLine="126" d="M565,571.8794 C565,640.3794 565,729.6094 565,729.6094 C565,729.6094 658.83,729.6094 731.17,729.6094 " fill="none" id="FireEvent-to-IncidentReport" style="stroke:#181818;stroke-width:1.0;"/><polygon fill="#181818" points="737.17,729.6094,728.17,725.6094,732.17,729.6094,728.17,733.6094,737.17,729.6094" style="stroke:#181818;stroke-width:1.0;"/><text fill="#000000" font-family="sans-serif" font-size="13" lengthAdjust="spacing" textLength="85" x="486.22" y="744.1045">documented in</text><text fill="#000000" font-family="sans-serif" font-size="13" lengthAdjust="spacing" textLength="7" x="557.6992" y="592.7323">1</text><text fill="#000000" font-family="sans-serif" font-size="13" lengthAdjust="spacing" textLength="22" x="707.3958" y="743.856">0..1</text></g><!--link Manager to Alert--><g id="link_Manager_Alert"><path codeLine="128" d="M639.75,901.7794 C666.88,901.7794 691,901.7794 691,901.7794 C691,901.7794 691,533.1094 691,533.1094 C691,533.1094 706.47,533.1094 731.2,533.1094 " fill="none" id="Manager-to-Alert" style="stroke:#181818;stroke-width:1.0;"/><polygon fill="#181818" points="737.2,533.1094,728.2,529.1094,732.2,533.1094,728.2,537.1094,737.2,533.1094" style="stroke:#181818;stroke-width:1.0;"/><text fill="#000000" font-family="sans-serif" font-size="13" lengthAdjust="spacing" textLength="50" x="640" y="734.4645">monitors</text><text fill="#000000" font-family="sans-serif" font-size="13" lengthAdjust="spacing" textLength="7" x="647.4527" y="914.7071">1</text><text fill="#000000" font-family="sans-serif" font-size="13" lengthAdjust="spacing" textLength="20" x="709.5208" y="550.9233">0..*</text></g><!--link Manager to IncidentReport--><g id="link_Manager_IncidentReport"><path codeLine="129" d="M639.54,929.4394 C704.03,929.4394 787,929.4394 787,929.4394 C787,929.4394 787,861.7094 787,803.8194 " fill="none" id="Manager-to-IncidentReport" style="stroke:#181818;stroke-width:1.0;"/><polygon fill="#181818" points="787,797.8194,783,806.8194,787,802.8194,791,806.8194,787,797.8194" style="stroke:#181818;stroke-width:1.0;"/><text fill="#000000" font-family="sans-serif" font-size="13" lengthAdjust="spacing" textLength="42" x="736.08" y="943.9345">reviews</text><text fill="#000000" font-family="sans-serif" font-size="13" lengthAdjust="spacing" textLength="7" x="647.5879" y="945.1926">1</text><text fill="#000000" font-family="sans-serif" font-size="13" lengthAdjust="spacing" textLength="20" x="763.5453" y="819.1894">0..*</text></g><!--link Resident to IncidentReport--><g id="link_Resident_IncidentReport"><path codeLine="130" d="M624.59,1080.6094 C704.1,1080.6094 835,1080.6094 835,1080.6094 C835,1080.6094 835,905.7794 835,803.6994 " fill="none" id="Resident-to-IncidentReport" style="stroke:#181818;stroke-width:1.0;"/><polygon fill="#181818" points="835,797.6994,831,806.6994,835,802.6994,839,806.6994,835,797.6994" style="stroke:#181818;stroke-width:1.0;"/><text fill="#000000" font-family="sans-serif" font-size="13" lengthAdjust="spacing" textLength="58" x="776" y="1058.8545">involved in</text><text fill="#000000" font-family="sans-serif" font-size="13" lengthAdjust="spacing" textLength="7" x="632.6734" y="1095.177">1</text><text fill="#000000" font-family="sans-serif" font-size="13" lengthAdjust="spacing" textLength="20" x="816.4953" y="819.057">0..*</text></g><!--SRC=[ZLPBZzis4BxhLn0-5l0YwIr24M3RJT55iq6nJde9Ug39iSMO3vKSsL0U_xqZqNgGajESJCqCPxxvva6ZGWtiJsxm4ySJPxyh3-m140GgPzck3GY6RTc3CrnPzkGawA889sLhxhbXGlCGxX6zsZS8ZyBPdVeCxCNC95HSkekoHtRWEi1COvnrelBE04FVp3LQMS2s1kOyLcwci0GWGCrUpIDuRayBOSt5YHzXXoqbw2aVReyQYaB30HawvjMnGYQLZwaMnVK2s_pQA2q9xuPzALZCa3r3K1AiW5x6oE7r-r6oaYcBlTHoIgLaEwB37di9bv9CmrpuhPYyEcS6XtHCV7M2TutPWqyz7hHpFhDxtr6LM3aXcffRqUwGOvF5_pPBzaC07sAcV1_GSu5NS9tc2gwXOmBkq6ZzRf4iK8_eL5IJfulpyWyUganJEGlB1EViH8xn2Y9WqttrEDRCdxYbZ0R8O6hjMe3Kd8Wv79I0jqxmli5lylBah4BdipROWGtEFy1PZPqGUb723h6bk5uhNZHUbalPW5nhaFT8YWUEy5uPkAQT5v3eLzvSk8U_gNQBB3Ampy2xPXxxjlzAu2A5eYYcpaFJwDVWARplu4hNx7LKL8rHKc6RIeNx-IsSGQVIODm95l8PpByyI1NNJSHOZu84vYJk0EPOhrgGlv7qw7oRCaQBwH07TYTSdevNuJGWN2EoMuflpbCdmddemx7Yo3skmG8hLyMTXzrAPGDfF36xWCEOxBSojSYjRNAlmGyGUNTE80egFQurM6-wR4dgYT1DGZgqNZaV2py7lR9ZHbIFLlHJ_0or6-7v_kF7yD725rxL-RZIA3SeNBw3X0juRrnZCMqtGZJjyEt7Iaaw_aCFaztsQxZerrskk6wWObn5eq7_V6o7fLCaYo7painXaKvbPZhDGZ4rNMRJbxc8nSxXf6GNCQbVlcvdgKoY0VkCcCtB3TjkNzFltTrFc_W-bTtm8Bt-uRRXi7jBPlgJPFkM_7RNHyiNTtTq79aiunkbecrg6fqcd9OC_crKNPFvHM6rz4qN9ifALl5Gf5N9ZDCwbDJQJZO2GbQW3FviMPMCKjNjPqBKnPg2hwOn1ThpG5UI2dylI6ZghfQHflKh52IsGqd_ezIH2X5kEy_ciHiIqHWIK0H5VuE6Kju8OEAx66xPBTnxOXykOHgX_xkWxDdfSqJp7m00]--></g></svg>